<svg width="48" height="21" viewBox="0 0 48 21" fill="none" xmlns="http://www.w3.org/2000/svg">
<rect y="8" width="20" height="6" fill="#34322D"/>
<path d="M43.0986 15.752C43.0986 15.3477 43.2334 15.0195 43.5029 14.7676C43.7783 14.5156 44.1211 14.3896 44.5312 14.3896C44.9473 14.3896 45.29 14.5156 45.5596 14.7676C45.835 15.0195 45.9727 15.3477 45.9727 15.752C45.9727 16.1504 45.8379 16.4756 45.5684 16.7275C45.2988 16.9736 44.9531 17.0967 44.5312 17.0967C44.1152 17.0967 43.7725 16.9736 43.5029 16.7275C43.2334 16.4756 43.0986 16.1504 43.0986 15.752ZM43.0986 8.55371C43.0986 8.14941 43.2334 7.82129 43.5029 7.56934C43.7783 7.31738 44.1211 7.19141 44.5312 7.19141C44.9473 7.19141 45.29 7.31738 45.5596 7.56934C45.835 7.82129 45.9727 8.14941 45.9727 8.55371C45.9727 8.95215 45.8379 9.27734 45.5684 9.5293C45.2988 9.77539 44.9531 9.89844 44.5312 9.89844C44.1152 9.89844 43.7725 9.77539 43.5029 9.5293C43.2334 9.27734 43.0986 8.95215 43.0986 8.55371Z" fill="#34322D"/>
</svg>
